<svg width="30" height="30" viewBox="0 0 30 30" fill="none" xmlns="http://www.w3.org/2000/svg">
<path d="M19.617 0H23.0449V3.83431C23.0449 3.83431 22.7857 7.12104 19.7898 8.27385L9.5937 12.1413L7.00027 13.031C7.00027 13.031 1.61367 13.1751 2.18958 8.76441C2.76549 4.35369 3.4284 8.87969 3.4284 8.87969C3.4284 8.87969 3.38061 10.7536 5.88643 9.86939L17.7876 5.39121C17.7876 5.39121 19.5735 4.88656 19.5735 3.28673L19.617 0Z" fill="url(#paint0_linear_921_3403)"/>
<path d="M0 0H3.42789V9.22553C3.42789 9.22553 3.02475 13.9576 9.82233 12.0548C9.82233 12.0548 2.47457 16.4018 0.308785 10.4998C0.0912875 9.90741 0 9.2752 0 8.64422V0Z" fill="url(#paint1_linear_921_3403)"/>
<path d="M10.3791 29.9986H6.95117V26.1643C6.95117 26.1643 7.21033 22.8776 10.2063 21.7248L20.4023 17.8573L22.9958 16.9676C22.9958 16.9676 28.3824 16.8235 27.8065 21.2342C27.2306 25.6449 26.5676 21.1189 26.5676 21.1189C26.5676 21.1189 26.6154 19.245 24.1096 20.1292L12.2085 24.6074C12.2085 24.6074 10.4226 25.1121 10.4226 26.7119L10.3791 29.9986Z" fill="url(#paint2_linear_921_3403)"/>
<path d="M29.9962 29.9987H26.5683V20.7731C26.5683 20.7731 26.9714 16.0411 20.1738 17.9438C20.1738 17.9438 27.5216 13.5969 29.6874 19.4989C29.9049 20.0913 29.9962 20.7235 29.9962 21.3544V29.9987Z" fill="url(#paint3_linear_921_3403)"/>
<path d="M26.5874 0H29.9957V3.37318C29.9957 3.37318 30.367 9.60633 24.195 13.2364C23.4867 13.6528 22.7295 13.9778 21.9593 14.2648L8.39174 19.3163C5.81669 20.2747 3.94805 22.7631 3.49957 25.4372C3.44749 25.7487 3.41073 30 3.43708 30H0V26.739C0 25.6426 0.148878 24.5505 0.479108 23.505C1.13221 21.4355 2.63877 18.3726 6.04277 16.6286C6.34971 16.4717 6.67198 16.3417 6.99363 16.219L20.9993 10.8818C22.4268 10.3379 23.733 9.48491 24.7188 8.31738C25.2892 7.64164 25.8247 6.80095 26.1733 5.78366C26.4232 5.05518 26.5194 4.28317 26.5311 3.51299L26.5874 0Z" fill="url(#paint4_linear_921_3403)"/>
<defs>
<linearGradient id="paint0_linear_921_3403" x1="21.9029" y1="1.59465" x2="4.23569" y2="11.5198" gradientUnits="userSpaceOnUse">
<stop stop-color="#EF303E"/>
<stop offset="0.3224" stop-color="#EC2F3D"/>
<stop offset="0.5224" stop-color="#E42B39"/>
<stop offset="0.689" stop-color="#D52532"/>
<stop offset="0.8373" stop-color="#C11C28"/>
<stop offset="0.9722" stop-color="#A6101B"/>
<stop offset="1" stop-color="#A00D18"/>
</linearGradient>
<linearGradient id="paint1_linear_921_3403" x1="4.91132" y1="13.0739" x2="4.91132" y2="-2.64648" gradientUnits="userSpaceOnUse">
<stop stop-color="#EF303E"/>
<stop offset="0.2375" stop-color="#EB2E3C"/>
<stop offset="0.4574" stop-color="#E02937"/>
<stop offset="0.6704" stop-color="#CD212E"/>
<stop offset="0.8779" stop-color="#B31521"/>
<stop offset="1" stop-color="#A00D18"/>
</linearGradient>
<linearGradient id="paint2_linear_921_3403" x1="8.41114" y1="28.8609" x2="24.8128" y2="18.6021" gradientUnits="userSpaceOnUse">
<stop stop-color="#EF303E"/>
<stop offset="0.3224" stop-color="#EC2F3D"/>
<stop offset="0.5224" stop-color="#E42B39"/>
<stop offset="0.689" stop-color="#D52532"/>
<stop offset="0.8373" stop-color="#C11C28"/>
<stop offset="0.9722" stop-color="#A6101B"/>
<stop offset="1" stop-color="#A00D18"/>
</linearGradient>
<linearGradient id="paint3_linear_921_3403" x1="25.0847" y1="16.9423" x2="25.0847" y2="31.8068" gradientUnits="userSpaceOnUse">
<stop stop-color="#EF303E"/>
<stop offset="0.2375" stop-color="#EB2E3C"/>
<stop offset="0.4574" stop-color="#E02937"/>
<stop offset="0.6704" stop-color="#CD212E"/>
<stop offset="0.8779" stop-color="#B31521"/>
<stop offset="1" stop-color="#A00D18"/>
</linearGradient>
<linearGradient id="paint4_linear_921_3403" x1="0.000716824" y1="14.9993" x2="30.0003" y2="14.9993" gradientUnits="userSpaceOnUse">
<stop stop-color="#020202"/>
<stop offset="0.4916" stop-color="#1A1A1A"/>
<stop offset="1" stop-color="#020202"/>
</linearGradient>
</defs>
</svg>
